<svg width="24" height="24" xmlns="http://www.w3.org/2000/svg" fill-rule="evenodd" clip-rule="evenodd"><path d="M12.996 24h-2v-5.657l-2.407.886-.346-.939 1.846-.679-1.658-1.21-2.166.798-.271 2.514-.994-.107.217-2.021-1.872.689-.345-.939 4.46-1.642-1.996-1.455-.019.004-.005-.022-1.13-.824-2.965 1.092-.345-.939 2.339-.861-1.335-.974.59-.808 2.526 1.843-.434-1.997.977-.213.673 3.097 4.66 3.398v-4.094l-.977-.712-2.532.932-.346-.939 1.907-.702-4.761-3.472.589-.808 2.4 1.75-.499-2.293.977-.212.738 3.392 2.504 1.826v-4.96l-.527-.388-1.185 1.434-.771-.636 1.149-1.392-2.749-2.024.592-.805 1.495 1.1v-1.372h1v2.108l.996.733-.001-3.564-1.567-1.123.582-.813 1.985 1.401 1.995-1.401.582.813-1.577 1.129.001 3.565 1.004-.74v-2.108h1v1.372l1.495-1.1.592.805-2.749 2.024 1.149 1.392-.771.636-1.185-1.434-.535.394v4.96l2.512-1.832.738-3.392.977.212-.499 2.293 2.4-1.75.589.808-4.761 3.472 1.907.702-.346.939-2.532-.932-.985.718v4.094l4.668-3.404.673-3.097.977.213-.434 1.997 2.526-1.843.59.808-1.335.974 2.339.861-.345.939-2.965-1.092-1.13.824-.005.022-.019-.004-1.996 1.455 4.46 1.642-.345.939-1.872-.689.217 2.021-.994.107-.271-2.514-2.166-.798-1.658 1.21 1.846.679-.346.939-2.415-.889v5.66z"/></svg>